<?xml version="1.0" encoding="UTF-8" standalone="no"?>
<!-- Created with Inkscape (http://www.inkscape.org/) -->

<svg
   width="117.72765mm"
   height="260.47733mm"
   viewBox="0 0 117.72765 260.47733"
   version="1.1"
   id="svg1"
   xml:space="preserve"
   xmlns="http://www.w3.org/2000/svg"
   xmlns:svg="http://www.w3.org/2000/svg"><defs
     id="defs1" /><g
     id="layer1"
     transform="translate(-33.209638,-11.445365)"><path
       style="fill:#000000"
       d="m 68.095011,271.77394 c -1.869308,-0.30096 -3.933232,-1.79808 -4.787627,-3.47283 -0.51044,-1.00055 -0.714518,-1.88151 -0.71617,-3.09156 -0.0016,-1.18237 0.105571,-1.67589 0.626123,-2.88288 0.683572,-1.58498 2.274356,-2.91012 4.225723,-3.52008 0.83847,-0.26208 1.94978,-0.27171 31.366097,-0.27171 32.931043,0 30.823433,-0.0495 32.636723,0.76648 1.75027,0.78762 3.24461,2.83692 3.56204,4.88488 0.5556,3.58459 -1.98762,7.04127 -5.58481,7.59071 -1.28494,0.19627 -60.108274,0.19338 -61.328099,-0.003 z M 51.506475,245.79173 c -2.516965,-0.62249 -4.476362,-2.60606 -5.086548,-5.14929 -0.285811,-1.19125 -0.281638,-51.12583 0.0044,-52.32198 0.254517,-1.06444 0.983452,-2.4196 1.652595,-3.07233 0.95477,-0.93135 1.164901,-1.09368 1.867193,-1.44244 1.606006,-0.79754 -0.501732,-0.75228 35.029216,-0.75228 30.995959,0 32.927309,0.0146 33.582669,0.25426 1.70287,0.62266 3.09862,1.63011 3.58837,2.59011 0.15721,0.30815 0.34765,0.56027 0.42321,0.56027 0.0756,0 0.0965,0.11409 0.0464,0.25354 -0.05,0.13944 -0.0378,0.20527 0.0273,0.14628 0.065,-0.059 0.25235,0.23439 0.41623,0.65195 0.29612,0.7545 0.29824,0.91819 0.3418,26.4367 0.0263,15.42872 -0.01,25.98194 -0.0911,26.44025 -0.39192,2.21519 -1.57438,3.78082 -3.64189,4.822 -2.02847,1.02152 -3.7965,0.99995 -5.9292,-0.0724 -1.51453,-0.7615 -2.58615,-1.921 -3.23625,-3.50166 l -0.31875,-0.775 -0.0385,-22.20256 -0.0385,-22.20257 h -8.90549 -8.905487 l -0.03848,22.20257 -0.03847,22.20256 -0.318747,0.775 c -0.658456,1.60099 -1.706346,2.73244 -3.248972,3.50805 -2.168283,1.09019 -3.883782,1.08838 -6.061187,-0.006 -1.514534,-0.7615 -2.586152,-1.921 -3.236249,-3.50166 l -0.318747,-0.775 -0.03848,-22.20256 -0.03848,-22.20257 H 69.25178 59.547207 v 21.79702 c 0,15.5975 -0.04637,22.01538 -0.163026,22.56476 -0.502359,2.36577 -2.543817,4.36899 -5.055708,4.96102 -1.096522,0.25844 -1.820032,0.26211 -2.821998,0.0143 z m 3.187317,-75.37057 c -1.400769,-0.33419 -2.108346,-0.70272 -3.158725,-1.64513 -1.587755,-1.42456 -2.455328,-3.81996 -2.127276,-5.87348 0.214747,-1.34426 1.087927,-3.02205 1.975748,-3.79633 1.128133,-0.98387 1.209522,-1.04856 1.209522,-0.96148 0,0.0455 0.09784,-0.0151 0.217413,-0.13463 0.119577,-0.11957 0.585752,-0.32449 1.035945,-0.45536 0.739547,-0.215 2.43115,-0.23648 17.530148,-0.22262 l 16.711615,0.0153 v -4.49212 -4.49213 l -16.842073,-0.0403 -16.842073,-0.0403 -1.323265,-0.69413 c -1.540837,-0.80826 -2.297629,-1.55971 -3.024568,-3.00322 -0.961921,-1.91012 -0.958725,-3.90396 0.0094,-5.8646 0.633063,-1.28207 1.734338,-2.41463 2.95871,-3.04276 1.249522,-0.64102 1.25005,-0.64104 18.583991,-0.64647 l 16.479878,-0.005 v -4.05658 -4.05659 H 72.256454 c -10.148648,0 -16.265432,-0.0544 -17.039927,-0.15149 -4.58176,-0.57451 -7.219931,-5.46162 -5.158184,-9.55534 0.941502,-1.86941 2.896791,-3.29362 4.952957,-3.60769 1.402103,-0.21416 39.416563,-0.22139 40.733188,-0.008 1.38784,0.2252 3.012377,1.10337 3.92704,2.12281 0.899222,1.00224 1.115732,1.39049 1.473952,2.64312 0.26035,0.91039 0.27122,1.88507 0.26512,23.76807 -0.006,20.00349 -0.0334,22.89026 -0.22546,23.39827 -0.12051,0.31873 -0.27146,0.7425 -0.33546,0.94171 -0.43326,1.34869 -2.116114,2.97358 -3.793256,3.66261 l -0.782633,0.32153 -20.645121,0.0206 c -11.354817,0.0113 -20.775512,-0.0105 -20.934878,-0.0485 z m 65.774628,-15.75958 c -0.0797,-0.0249 -0.51829,-0.15577 -0.97468,-0.29078 -1.59185,-0.47092 -2.91014,-1.62297 -3.73079,-3.26035 -0.30026,-0.59908 -0.61936,-1.43471 -0.70913,-1.85697 -0.11731,-0.55187 -0.1632,-7.58921 -0.1632,-25.02768 V 99.965854 h -8.43961 c -7.815908,0 -8.50976,-0.02006 -9.388925,-0.271482 -1.252461,-0.358171 -1.640899,-0.574748 -2.642332,-1.473253 -1.355087,-1.21581 -2.149472,-3.040243 -2.145325,-4.927086 0.0039,-1.763308 0.639752,-3.326903 1.855387,-4.562317 0.853345,-0.867229 1.488895,-1.311803 1.781781,-1.246375 0.119524,0.0267 0.169054,-4.81e-4 0.110066,-0.0604 -0.05899,-0.05992 0.234389,-0.24294 0.651951,-0.406702 0.753254,-0.295417 0.943923,-0.298097 24.334707,-0.341999 14.15728,-0.02657 23.88072,0.0097 24.33951,0.0909 1.49182,0.263886 2.60041,0.82931 3.62529,1.849051 1.24273,1.236497 1.82323,2.528353 1.94877,4.336818 0.19757,2.84626 -1.51972,5.477838 -4.31717,6.615673 -0.77174,0.313897 -0.90513,0.318951 -9.58398,0.363066 l -8.80134,0.04474 -0.002,24.515302 c -0.002,26.54657 0.0405,25.11805 -0.7933,26.75933 -0.68463,1.34768 -2.91578,3.25925 -3.44763,2.95382 -0.0976,-0.0561 -0.12433,-0.0444 -0.0599,0.0262 0.25458,0.27902 -2.73807,0.65253 -3.44843,0.43041 z M 58.315743,92.642782 C 51.695856,91.852824 46.075536,89.10599 41.400757,84.375875 40.464222,83.428253 39.464536,82.294354 39.179234,81.856098 38.893931,81.417841 38.510588,80.89628 38.32736,80.697073 36.890655,79.135072 34.701403,74.258207 33.969912,70.990244 32.961323,66.48434 32.956523,62.587572 33.953817,57.925035 c 0.715385,-3.344559 2.797962,-7.917192 4.626003,-10.157136 0.376453,-0.461278 0.68446,-0.896939 0.68446,-0.968137 0,-0.257323 2.365559,-2.67497 3.883333,-3.968841 2.205843,-1.880436 2.757671,-2.25845 5.184595,-3.551559 3.110409,-1.657282 6.60005,-2.731772 10.200852,-3.140931 4.212509,-0.478666 7.924177,-0.06158 12.20031,1.370952 2.078809,0.696417 2.435509,0.851556 4.768542,2.073978 1.958788,1.026332 5.623969,3.878043 6.921443,5.385261 1.241461,1.44215 2.835426,3.494639 2.800248,3.605775 -0.01962,0.06198 0.05861,0.148869 0.173843,0.193088 0.115232,0.04422 0.174268,0.172245 0.13119,0.284503 -0.04308,0.112258 0.02928,0.245396 0.160789,0.295862 0.131511,0.05046 0.431059,0.491082 0.665662,0.979148 0.234604,0.488066 0.6549,1.311161 0.933991,1.8291 0.578696,1.073946 1.839552,4.75637 2.182664,6.374634 0.347212,1.637598 0.635321,4.25143 0.638766,5.795122 0.0095,4.240885 -1.152261,9.062913 -3.117353,12.939334 -1.211395,2.389647 -1.363479,2.623612 -3.139039,4.829093 -1.541799,1.915118 -3.679799,4.101397 -4.496565,4.598102 -0.258019,0.156911 -1.023284,0.690092 -1.700589,1.184848 -1.264637,0.923788 -3.137853,1.985061 -4.41878,2.503467 -2.580977,1.044549 -3.615014,1.390452 -5.116986,1.711716 -3.541927,0.757602 -6.620694,0.930409 -9.805453,0.550368 z m 6.659462,-13.414723 c 1.338259,-0.28537 3.76304,-1.208987 4.278831,-1.629837 0.119524,-0.09752 0.391155,-0.251238 0.603625,-0.341586 0.629523,-0.267692 3.093095,-2.587679 3.918893,-3.690487 1.001471,-1.33741 1.640381,-2.504332 2.044938,-3.734929 0.11788,-0.358574 0.318034,-0.929178 0.444787,-1.268011 0.553397,-1.479332 0.6478,-5.660051 0.170925,-7.56955 -0.434662,-1.740473 -1.484829,-4.063146 -2.356268,-5.211402 -1.673571,-2.205189 -3.754589,-4.037387 -5.424859,-4.776226 -0.354012,-0.156597 -0.694351,-0.335414 -0.756309,-0.397372 -0.148448,-0.148448 -1.824613,-0.737116 -2.919635,-1.025373 -1.222439,-0.321799 -5.453889,-0.325163 -6.66439,-0.0053 -3.293583,0.870301 -5.799799,2.320209 -7.750975,4.484132 -2.789471,3.093622 -4.045815,6.305799 -4.053138,10.362922 -0.0065,3.614522 0.901992,6.352462 3.04383,9.173008 2.262811,2.979854 4.956651,4.740571 8.542966,5.583759 1.943895,0.457034 4.85847,0.476636 6.876779,0.04625 z m 41.402645,-5.066414 c -1.24417,-0.207287 -2.92421,-1.142897 -3.79497,-2.113407 -0.89922,-1.00224 -1.11573,-1.390491 -1.47395,-2.643117 -0.25999,-0.909137 -0.27148,-1.873597 -0.27148,-22.784836 V 24.784771 l -8.801342,-0.04474 c -8.655113,-0.04399 -8.814217,-0.04998 -9.576349,-0.360279 -1.568249,-0.638504 -2.740355,-1.717663 -3.489936,-3.213187 -0.671693,-1.340125 -0.888818,-2.291043 -0.782515,-3.427087 0.264593,-2.827649 2.02139,-5.090564 4.607371,-5.934713 l 1.100992,-0.3594 23.574429,0.0035 c 13.63661,0.002 23.78818,0.05889 24.0815,0.134963 2.1422,0.555566 3.56763,1.665912 4.49755,3.503387 1.09143,2.156596 1.09197,3.883904 0.002,6.045169 -0.80001,1.58617 -1.87694,2.58466 -3.49951,3.244625 -0.77174,0.313897 -0.90514,0.31895 -9.58398,0.363066 l -8.80134,0.04474 v 21.86621 c 0,18.275559 -0.0331,21.968151 -0.20142,22.487005 -0.11079,0.341437 -0.24128,0.795522 -0.28998,1.009078 -0.0487,0.213556 -0.1909,0.490636 -0.316,0.615732 -0.12509,0.125096 -0.19019,0.227448 -0.14466,0.227448 0.1081,0 -0.26176,0.438533 -1.10749,1.313127 -0.84309,0.87186 -2.38331,1.668156 -3.61236,1.867588 -1.03087,0.167275 -1.05726,0.167159 -2.11647,-0.0093 z"
       id="path1" /></g></svg>
