<?xml version="1.0" encoding="UTF-8" standalone="no"?>
<!-- Created with Inkscape (http://www.inkscape.org/) -->

<svg
   width="116.08549mm"
   height="287.87375mm"
   viewBox="0 0 116.08549 287.87375"
   version="1.1"
   id="svg1"
   xml:space="preserve"
   xmlns="http://www.w3.org/2000/svg"
   xmlns:svg="http://www.w3.org/2000/svg"><defs
     id="defs1" /><g
     id="layer1"
     transform="translate(-6.8140791,-4.9136741)"><path
       style="fill:#000000"
       d="m 41.606303,292.65366 c -0.985285,-0.16413 -2.570049,-0.96742 -3.401599,-1.7242 -0.765549,-0.69671 -1.720005,-2.43815 -1.957603,-3.57172 -0.255817,-1.22049 -0.213495,-40.68602 0.04479,-41.76622 0.42278,-1.76815 1.837402,-3.6607 3.284687,-4.39441 1.577157,-0.79956 1.277278,-0.77679 10.259254,-0.77905 l 8.336044,-0.002 0.0011,-18.80121 c 7.08e-4,-12.21007 0.05324,-19.12257 0.149835,-19.71788 0.71345,-4.3968 5.755292,-6.93094 9.564151,-4.80714 0.832993,0.46448 1.48458,0.99533 2.284074,1.86087 0.387845,0.41988 0.945629,1.64801 1.118481,2.46266 0.115502,0.54437 0.162301,6.27771 0.162301,19.88381 v 19.11889 l 8.336044,0.002 c 8.887394,0.002 8.86528,1.1e-4 10.301837,0.72569 0.685257,0.34611 0.762809,0.407 1.677504,1.31714 0.634708,0.63154 1.322414,1.88392 1.651616,3.00775 0.153541,0.52416 0.190276,4.62078 0.190276,21.21903 0,22.69859 0.07277,20.80975 -0.873717,22.67755 -0.803312,1.58527 -2.831991,2.98589 -4.756929,3.28425 -2.390602,0.37053 -4.431377,-0.45963 -6.336436,-2.57758 -0.356339,-0.39615 -0.913978,-1.65011 -1.078375,-2.42491 -0.114816,-0.54113 -0.162301,-5.64071 -0.162301,-17.42991 v -16.66499 h -4.47476 -4.474759 v 16.66499 c 0,11.79731 -0.04744,16.88841 -0.162429,17.42991 -0.240406,1.13215 -0.870081,2.26994 -1.703913,3.07889 -2.164797,2.1002 -5.074861,2.59743 -7.638979,1.30524 -1.848829,-0.93172 -3.30169,-2.88337 -3.623686,-4.86774 -0.09577,-0.59023 -0.149133,-6.73824 -0.149835,-17.26398 l -0.0011,-16.34731 H 53.76929 49.366704 l -0.0086,16.56383 c -0.0047,9.11011 -0.06398,16.85613 -0.131659,17.21339 -0.395103,2.08561 -1.583422,3.66057 -3.490562,4.62629 -0.639947,0.32405 -1.490189,0.62195 -2.02086,0.70806 -1.026557,0.16658 -1.052773,0.16646 -2.108714,-0.009 z M 25.765954,234.20684 c -0.95269,-0.14401 -2.31677,-0.43431 -3.031288,-0.64512 -1.662322,-0.49043 -5.434461,-2.33408 -6.418113,-3.13687 -3.327989,-2.7161 -4.418642,-3.95039 -6.3465434,-7.18238 -1.3622033,-2.28363 -2.6069787,-7.17896 -2.6069787,-10.25246 0,-3.0735 1.2447754,-7.96883 2.6069787,-10.25246 1.9279014,-3.23199 3.0185544,-4.46628 6.3465434,-7.18238 1.068667,-0.87218 4.796437,-2.66102 6.634633,-3.18376 1.647128,-0.4684 4.405189,-0.88912 5.828713,-0.88912 4.279661,0 9.621771,1.80013 13.008582,4.3835 1.510251,1.15198 3.594966,3.38581 4.729391,5.06768 2.054655,3.04618 3.049756,5.57708 3.576925,9.09742 0.353402,2.35997 0.353402,3.55827 0,5.91824 -0.527169,3.52034 -1.52227,6.05124 -3.576925,9.09742 -1.134425,1.68187 -3.21914,3.9157 -4.729391,5.06768 -2.74982,2.09749 -6.711594,3.68419 -10.386995,4.16002 -2.16207,0.27991 -3.438909,0.26464 -5.635532,-0.0674 z m 5.846057,-13.3734 c 2.599759,-1.09583 4.662272,-3.30038 5.244868,-5.60605 0.188321,-0.7453 0.188777,-3.72381 6.87e-4,-4.48505 -0.262181,-1.06109 -1.215985,-2.60829 -2.206142,-3.57868 -4.009732,-3.92965 -10.564287,-2.90507 -13.145665,2.05489 -0.603783,1.16013 -0.744571,1.76856 -0.822594,3.55494 -0.05919,1.35528 -0.01464,1.68563 0.415547,3.08096 0.650941,2.11137 3.417096,4.64419 5.689897,5.20992 0.95152,0.23685 4.067568,0.0877 4.823402,-0.23093 z m 66.400542,13.42466 c -3.872418,-0.52522 -7.876957,-2.26538 -10.767253,-4.67887 -3.658493,-3.05496 -6.590326,-7.76352 -7.353217,-11.80936 -0.113977,-0.60446 -0.270542,-1.39131 -0.347923,-1.74857 -0.182341,-0.84186 -0.182341,-5.22072 0,-6.06258 0.07738,-0.35726 0.233946,-1.14411 0.347923,-1.74857 0.931687,-4.94102 5.016512,-10.65765 9.605264,-13.44238 3.283398,-1.99256 7.741677,-3.28548 11.329093,-3.28548 3.58549,0 8.03634,1.2902 11.32909,3.28403 3.01369,1.82486 6.23297,5.32434 7.87106,8.55616 0.6531,1.28851 1.51199,3.70921 1.7342,4.88767 0.11398,0.60446 0.27055,1.39131 0.34793,1.74857 0.18234,0.84186 0.18234,5.22072 0,6.06258 -0.0774,0.35726 -0.23395,1.14411 -0.34793,1.74857 -0.22221,1.17846 -1.0811,3.59916 -1.7342,4.88767 -1.63809,3.23182 -4.85737,6.7313 -7.87106,8.55616 -2.61642,1.5843 -5.71341,2.67068 -8.72485,3.06055 -2.04991,0.26539 -3.37141,0.26145 -5.418127,-0.0161 z m 4.898377,-13.1951 c 1.3354,-0.30776 2.71538,-1.15061 3.89656,-2.37989 0.97071,-1.01023 1.17913,-1.32378 1.58321,-2.38173 0.64242,-1.68194 0.78498,-2.46231 0.69619,-3.81079 -0.34172,-5.1899 -5.15912,-8.69917 -10.231914,-7.45352 -1.558938,0.3828 -2.644636,1.01151 -3.835528,2.2211 -1.679473,1.70584 -2.374711,3.38393 -2.374711,5.73184 0,1.54752 0.193452,2.39495 0.852064,3.73255 0.926715,1.88209 3.149168,3.74285 5.092257,4.2635 0.923047,0.24734 3.391832,0.29129 4.321872,0.0769 z M 48.139752,190.77031 c -0.715787,-0.12643 -2.775862,-1.16942 -3.204889,-1.6226 -0.781236,-0.8252 -0.930368,-1.03503 -1.403865,-1.97527 -1.008263,-2.00214 -1.01139,-3.80665 -0.01004,-5.79506 0.722468,-1.43463 1.477475,-2.18386 3.011687,-2.98865 l 1.318415,-0.69158 H 64.884014 81.91697 l 1.354664,0.72148 c 0.977399,0.52056 1.525146,0.92255 1.966821,1.44347 1.094011,1.2903 1.653231,2.68907 1.656389,4.14313 0.0062,2.87502 -1.221517,4.86794 -3.805977,6.17794 l -1.281505,0.64956 -16.545111,0.0198 c -9.09981,0.0109 -16.804935,-0.0261 -17.122499,-0.0822 z m 15.445138,-17.2882 c -1.378176,-0.323 -2.10076,-0.69906 -3.147148,-1.63789 -1.015712,-0.91131 -1.890658,-2.5299 -2.115033,-3.91265 -0.204211,-1.2585 -0.204211,-37.95962 0,-39.21811 0.224375,-1.38275 1.099321,-3.00134 2.115033,-3.91265 1.42878,-1.28192 2.415082,-1.65683 4.374099,-1.66268 1.561658,-0.005 2.687916,0.28348 3.531641,0.90355 1.628874,1.19707 2.607182,2.5931 2.954899,4.21659 0.127044,0.59317 0.158813,5.77594 0.125645,20.49729 -0.04401,19.53452 -0.04696,19.71034 -0.344215,20.51649 -0.702502,1.90518 -2.564769,3.56809 -4.607979,4.1147 -0.691633,0.18503 -2.280416,0.2375 -2.886942,0.0954 z M 25.765954,155.68203 c -2.298124,-0.34739 -3.929625,-0.85045 -6.09994,-1.88086 -4.0823,-1.93817 -7.178028,-4.83775 -9.6987393,-9.08419 -1.3310958,-2.2424 -2.6055734,-7.30069 -2.6055734,-10.3413 0,-4.42319 2.0421998,-10.31155 4.6072967,-13.28442 0.284364,-0.32957 0.757843,-0.88954 1.052176,-1.24439 0.898114,-1.08276 3.953134,-3.43564 5.600894,-4.31363 2.482355,-1.32271 4.311398,-1.91618 6.999539,-2.27116 2.873036,-0.3794 3.481064,-0.37974 6.33441,-0.004 3.58331,0.47242 5.756889,1.31911 9.182902,3.5771 1.616757,1.06556 4.159203,3.61234 5.326258,5.33534 1.918623,2.83259 3.236053,6.26683 3.682901,9.60047 0.286145,2.13475 0.287124,3.05113 0.0056,5.22583 -1.107997,8.55838 -7.096657,15.60582 -15.317701,18.02583 -1.887726,0.55569 -4.573498,0.95765 -6.249237,0.9353 -0.598729,-0.008 -1.868073,-0.13235 -2.820764,-0.27636 z m 5.773884,-13.49027 c 2.312865,-0.88987 3.624865,-2.04942 4.794061,-4.23701 0.536,-1.00287 0.675053,-1.72457 0.672346,-3.48956 -0.003,-1.9863 -0.146042,-2.6374 -0.871797,-3.96954 -1.624822,-2.9824 -5.205526,-4.80494 -8.389164,-4.27 -2.939824,0.49398 -4.899092,1.88305 -6.264156,4.44112 -0.588054,1.10199 -0.744952,1.8934 -0.753045,3.79842 -0.01148,2.70258 0.660238,4.253 2.62828,6.06643 1.086348,1.001 1.928616,1.44056 3.780889,1.97316 1.059616,0.30469 3.190981,0.15315 4.402586,-0.31302 z m 66.471832,13.54251 c -7.955753,-1.07323 -14.986598,-6.83616 -17.426102,-14.28355 -0.965931,-2.94882 -1.083171,-3.60622 -1.157839,-6.4923 -0.06176,-2.38697 -0.03551,-2.7721 0.306792,-4.50241 0.691726,-3.49659 2.330272,-7.07156 4.3382,-9.46507 1.200411,-1.43092 2.05021,-2.31413 2.75205,-2.86025 0.396954,-0.30888 1.046516,-0.81911 1.443471,-1.13384 1.084857,-0.86015 3.696991,-2.22159 5.494203,-2.86358 1.24359,-0.44423 2.105745,-0.63751 3.897372,-0.87371 1.265296,-0.16682 2.690273,-0.30331 3.166623,-0.30331 0.47634,0 1.90132,0.13649 3.16662,0.30331 1.79163,0.2362 2.65378,0.42948 3.89737,0.87371 1.79721,0.64199 4.40935,2.00343 5.4942,2.86358 0.39696,0.31473 1.04824,0.82507 1.44729,1.13409 1.71306,1.32656 3.90119,4.08833 5.05029,6.37431 0.90469,1.79975 1.63999,3.94824 2.03554,5.9477 0.34299,1.73378 0.36918,2.11757 0.3074,4.50547 -0.0747,2.88539 -0.19762,3.57767 -1.1431,6.43543 -0.74282,2.24519 -1.16008,3.08785 -2.57008,5.19025 -1.97314,2.94207 -5.25321,5.72388 -8.59167,7.28654 -1.90614,0.89223 -4.3628,1.60345 -6.48962,1.87879 -2.0479,0.26513 -3.36864,0.26144 -5.41901,-0.0152 z m 4.69704,-13.26434 c 1.95939,-0.508 3.97247,-1.85154 4.95455,-3.30671 0.22866,-0.33881 0.63517,-1.19344 0.90335,-1.89919 0.44846,-1.18016 0.48723,-1.41068 0.48289,-2.87101 -0.004,-1.43819 -0.0494,-1.70583 -0.47891,-2.84016 -0.52494,-1.38638 -0.91811,-2.00391 -1.92735,-3.02715 -1.76377,-1.78824 -4.56455,-2.71508 -6.929894,-2.29325 -2.111133,0.37648 -3.253301,0.9666 -4.715288,2.4362 -1.831346,1.84088 -2.645611,4.22365 -2.320262,6.78975 0.450531,3.55343 2.697168,6.01876 6.39231,7.01456 1.003364,0.27039 2.589054,0.26907 3.638604,-0.003 z M 12.468082,108.18645 c -0.567555,-0.074 -1.290994,-0.32123 -2.020859,-0.69053 -2.5298129,-1.28005 -3.8947936,-3.80192 -3.591371,-6.63524 0.1430924,-1.336177 1.1623077,-3.292779 2.1531962,-4.13352 0.900693,-0.764214 1.9313708,-1.291822 2.9427778,-1.50642 1.224908,-0.259899 33.032036,-0.216288 34.132949,0.0468 1.078663,0.25777 1.985812,0.798162 2.886903,1.719738 1.214591,1.242202 1.363576,1.496321 1.766284,3.012698 0.418064,1.574204 0.105782,3.851704 -0.695021,5.068844 -1.085191,1.64938 -3.016647,2.88021 -4.904612,3.12549 -1.264203,0.16424 -31.406424,0.15699 -32.670247,-0.008 z m 71.963734,0.003 c -2.713294,-0.31732 -5.218191,-2.80975 -5.613381,-5.58542 -0.296063,-2.07946 0.272065,-3.801598 1.846378,-5.596845 0.677657,-0.772757 2.057672,-1.549978 3.171861,-1.786385 0.540443,-0.11467 5.526454,-0.162301 16.989766,-0.162301 11.46331,0 16.44932,0.04763 16.98976,0.162301 0.77481,0.164397 2.02876,0.722037 2.42492,1.078375 0.9193,0.826898 1.50278,1.539331 1.92874,2.355021 2.10881,4.038284 -0.58011,9.020694 -5.15203,9.546434 -1.40449,0.16151 -31.196832,0.15128 -32.586014,-0.0112 z m -21.279967,-2.52187 c -1.16562,-0.29883 -2.300796,-1.01991 -3.250666,-2.06489 -0.675837,-0.74351 -2.9242,-4.356763 -9.762774,-15.689372 -4.886597,-8.097871 -9.049949,-15.048183 -9.251894,-15.445138 -1.531167,-3.009753 -0.62304,-6.74406 2.075671,-8.535362 2.556555,-1.696945 5.553754,-1.563931 7.995228,0.354823 0.818352,0.643142 0.376432,-0.0444 7.667883,11.929772 3.385322,5.559448 6.200069,10.108087 6.254994,10.108087 0.05492,0 2.83887,-4.547522 6.186544,-10.105605 3.347675,-5.558083 6.280248,-10.40123 6.516829,-10.762548 1.110307,-1.695713 3.550214,-2.849176 5.687289,-2.688659 4.840842,0.363599 7.66547,5.375667 5.466298,9.699492 -0.201897,0.396955 -4.406385,7.412223 -9.343306,15.589486 -7.589827,12.571394 -9.113735,15.008464 -9.866563,15.778824 -1.69872,1.73828 -4.075198,2.42082 -6.375533,1.83109 z M 26.126822,64.506913 C 25.293218,64.394459 23.838121,64.074014 22.893274,63.794812 20.887925,63.202233 17.44146,61.573052 16.383394,60.717522 15.98644,60.396553 15.336878,59.881471 14.939923,59.572895 13.392044,58.369638 10.891914,55.2181 9.8825161,53.197784 8.2677551,49.965828 7.4896845,46.744343 7.4943668,43.310008 c 0.00289,-2.120284 0.041748,-2.487559 0.4963279,-4.69128 0.2562135,-1.242076 1.2077867,-3.976747 1.7694672,-5.085171 0.2099865,-0.414388 0.8839011,-1.502106 1.4975881,-2.417151 2.631493,-3.923717 6.968362,-7.057714 11.693436,-8.450151 1.72091,-0.507136 4.466111,-0.936136 5.990404,-0.936136 2.669775,0 6.455583,0.870183 9.069463,2.084652 5.139963,2.388146 9.452213,7.189132 11.171407,12.437536 0.965931,2.948822 1.083172,3.606219 1.15784,6.492307 0.06178,2.387894 0.03559,2.771681 -0.307398,4.505465 -0.714047,3.609421 -2.164079,6.686695 -4.519165,9.590621 -0.770976,0.950648 -1.687389,1.965169 -2.036473,2.25449 -0.349084,0.289322 -0.904346,0.7587 -1.233914,1.043064 -1.013851,0.874785 -1.899641,1.412775 -3.812252,2.315394 -2.262993,1.067974 -4.614777,1.774482 -6.885265,2.068427 -2.047902,0.265129 -3.368642,0.261433 -5.419011,-0.01516 z m 3.979121,-13.046675 c 1.973824,-0.34505 3.306811,-1.050552 4.753878,-2.516057 1.744783,-1.767015 2.549378,-4.183805 2.230411,-6.699565 -0.399302,-3.149373 -2.298099,-5.543166 -5.290699,-6.669925 -1.16609,-0.43905 -1.406093,-0.478437 -2.930116,-0.480863 -1.545322,-0.0025 -1.744747,0.03073 -2.886942,0.480517 -0.674823,0.265737 -1.454297,0.646986 -1.732165,0.847219 -3.203363,2.308357 -4.385047,6.088636 -3.04108,9.728605 0.523696,1.418367 0.912275,2.021845 1.99096,3.092041 1.165458,1.156285 2.362295,1.77763 4.153582,2.156359 1.107584,0.234174 1.690637,0.247238 2.752171,0.06167 z m 67.689206,12.994429 c -2.314892,-0.349923 -3.84377,-0.825313 -6.361181,-1.97795 -1.844334,-0.844457 -2.331422,-1.146728 -3.971808,-2.464769 -1.028322,-0.82625 -1.939624,-1.632972 -2.025115,-1.792714 -0.08549,-0.159742 -0.49235,-0.656914 -0.904129,-1.104828 -1.342082,-1.459849 -1.934765,-2.372545 -2.888728,-4.448468 -1.117701,-2.432235 -1.713074,-4.412954 -2.024238,-6.734342 -0.286145,-2.134745 -0.287123,-3.051124 -0.0056,-5.225831 0.294209,-2.272522 1.045981,-4.780207 2.084359,-6.952789 1.10018,-2.30189 2.021732,-3.610905 3.816081,-5.420539 3.520851,-3.550842 7.848491,-5.724294 12.690039,-6.373264 2.141581,-0.287062 3.264321,-0.288151 5.323131,-0.0052 8.53898,1.173698 15.52106,7.138861 17.92853,15.317287 0.5214,1.771278 0.94982,4.502841 0.94982,6.056056 0,1.430756 -0.42193,4.187071 -0.891,5.820565 -0.59006,2.054868 -1.91774,4.788725 -3.17475,6.537185 -1.29595,1.802641 -3.58672,4.125217 -5.07017,5.140564 -2.57816,1.764625 -6.49115,3.2491 -9.74243,3.695994 -2.05264,0.282139 -3.537996,0.264781 -5.732833,-0.06699 z M 102.40302,51.40012 c 2.11651,-0.404954 4.20521,-1.753581 5.27188,-3.403926 0.29756,-0.460386 0.75332,-1.47577 1.0128,-2.25641 0.43562,-1.310566 0.46627,-1.524444 0.39994,-2.790643 -0.0567,-1.082978 -0.17058,-1.629268 -0.54144,-2.598248 -0.51288,-1.340014 -0.85165,-1.875318 -1.85913,-2.937693 -0.85198,-0.898388 -1.39201,-1.236335 -2.90152,-1.815748 -0.87005,-0.333962 -1.56454,-0.493259 -2.38752,-0.547635 -1.33877,-0.08845 -2.129902,0.05392 -3.760531,0.676733 -1.942489,0.741934 -3.77969,2.658482 -4.576009,4.773644 -0.789796,2.097836 -0.46601,5.303125 0.713989,7.068053 0.185777,0.277869 0.490968,0.731878 0.678202,1.00891 0.50843,0.752276 2.173933,1.950698 3.30796,2.380261 1.683937,0.637868 2.976819,0.761185 4.641379,0.442702 z m -38.962477,0.294665 c -1.08326,-0.269147 -2.372375,-0.982037 -3.1956,-1.76719 -0.902604,-0.86086 -1.718002,-2.42199 -1.922143,-3.680058 -0.0945,-0.582371 -0.149142,-5.878145 -0.149835,-14.521382 l -0.0011,-13.604713 -4.438673,-0.0011 c -2.44127,-6e-4 -4.851174,-0.06802 -5.355342,-0.149834 -1.204119,-0.195387 -2.773198,-0.999121 -3.637138,-1.863061 -0.881894,-0.881894 -1.674221,-2.446292 -1.897016,-3.745534 -0.33915,-1.977767 0.544897,-4.3418996 2.168393,-5.7987515 0.893695,-0.8019611 1.236307,-1.0109633 2.28643,-1.3947807 0.651045,-0.2379555 1.807589,-0.2547067 17.585485,-0.2547067 15.777896,0 16.934441,0.016751 17.585486,0.2547067 1.156471,0.4226874 1.527592,0.6648865 2.455884,1.6027474 1.327845,1.341531 1.971561,2.7980088 1.971561,4.4608748 0,2.696755 -1.153307,4.692164 -3.46433,5.99386 -1.384621,0.779895 -2.251945,0.883212 -7.469962,0.88984 l -4.510846,0.0057 v 13.922389 c 0,9.765383 -0.0485,14.150784 -0.162429,14.687316 -0.377646,1.778459 -1.520682,3.283191 -3.209244,4.22476 -1.544541,0.861261 -3.130486,1.113831 -4.639591,0.738878 z"
       id="path1" /></g></svg>
